<mxfile host="app.diagrams.net" agent="Mozilla/5.0 (Windows NT 10.0; Win64; x64) AppleWebKit/537.36 (KHTML, like Gecko) Chrome/135.0.0.0 Safari/537.36" version="26.2.13">
  <diagram id="Ht1M8jgEwFfnCIfOTk4-" name="Page-1">
    <mxGraphModel dx="1305" dy="659" grid="1" gridSize="10" guides="1" tooltips="1" connect="1" arrows="1" fold="1" page="1" pageScale="1" pageWidth="1169" pageHeight="827" math="0" shadow="0">
      <root>
        <mxCell id="0" />
        <mxCell id="1" parent="0" />
        <mxCell id="Gd5muSknLl1hoR8JFERJ-35" value="AWS Cloud" style="points=[[0,0],[0.25,0],[0.5,0],[0.75,0],[1,0],[1,0.25],[1,0.5],[1,0.75],[1,1],[0.75,1],[0.5,1],[0.25,1],[0,1],[0,0.75],[0,0.5],[0,0.25]];outlineConnect=0;gradientColor=none;html=1;whiteSpace=wrap;fontSize=12;fontStyle=0;container=1;pointerEvents=0;collapsible=0;recursiveResize=0;shape=mxgraph.aws4.group;grIcon=mxgraph.aws4.group_aws_cloud_alt;strokeColor=#232F3E;fillColor=none;verticalAlign=top;align=left;spacingLeft=30;fontColor=#232F3E;dashed=0;" vertex="1" parent="1">
          <mxGeometry x="310" y="150" width="600" height="440" as="geometry" />
        </mxCell>
        <mxCell id="Gd5muSknLl1hoR8JFERJ-36" value="Region" style="points=[[0,0],[0.25,0],[0.5,0],[0.75,0],[1,0],[1,0.25],[1,0.5],[1,0.75],[1,1],[0.75,1],[0.5,1],[0.25,1],[0,1],[0,0.75],[0,0.5],[0,0.25]];outlineConnect=0;gradientColor=none;html=1;whiteSpace=wrap;fontSize=12;fontStyle=0;container=1;pointerEvents=0;collapsible=0;recursiveResize=0;shape=mxgraph.aws4.group;grIcon=mxgraph.aws4.group_region;strokeColor=#00A4A6;fillColor=none;verticalAlign=top;align=left;spacingLeft=30;fontColor=#147EBA;dashed=1;" vertex="1" parent="1">
          <mxGeometry x="345" y="175" width="520" height="395" as="geometry" />
        </mxCell>
        <mxCell id="Gd5muSknLl1hoR8JFERJ-37" value="Share Resources" style="fillColor=none;strokeColor=#5A6C86;dashed=1;verticalAlign=top;fontStyle=0;fontColor=#5A6C86;whiteSpace=wrap;html=1;" vertex="1" parent="Gd5muSknLl1hoR8JFERJ-36">
          <mxGeometry x="50" y="279" width="420" height="91" as="geometry" />
        </mxCell>
        <mxCell id="Gd5muSknLl1hoR8JFERJ-38" value="IAM" style="sketch=0;points=[[0,0,0],[0.25,0,0],[0.5,0,0],[0.75,0,0],[1,0,0],[0,1,0],[0.25,1,0],[0.5,1,0],[0.75,1,0],[1,1,0],[0,0.25,0],[0,0.5,0],[0,0.75,0],[1,0.25,0],[1,0.5,0],[1,0.75,0]];outlineConnect=0;fontColor=#232F3E;fillColor=#DD344C;strokeColor=#ffffff;dashed=0;verticalLabelPosition=bottom;verticalAlign=top;align=center;html=1;fontSize=12;fontStyle=1;aspect=fixed;shape=mxgraph.aws4.resourceIcon;resIcon=mxgraph.aws4.identity_and_access_management;labelBorderColor=#7EA6E0;labelBackgroundColor=default;" vertex="1" parent="Gd5muSknLl1hoR8JFERJ-36">
          <mxGeometry x="125" y="285" width="60" height="60" as="geometry" />
        </mxCell>
        <mxCell id="Gd5muSknLl1hoR8JFERJ-29" value="VPC" style="points=[[0,0],[0.25,0],[0.5,0],[0.75,0],[1,0],[1,0.25],[1,0.5],[1,0.75],[1,1],[0.75,1],[0.5,1],[0.25,1],[0,1],[0,0.75],[0,0.5],[0,0.25]];outlineConnect=0;gradientColor=none;html=1;whiteSpace=wrap;fontSize=12;fontStyle=0;container=1;pointerEvents=0;collapsible=0;recursiveResize=0;shape=mxgraph.aws4.group;grIcon=mxgraph.aws4.group_vpc2;strokeColor=#8C4FFF;fillColor=none;verticalAlign=top;align=left;spacingLeft=30;fontColor=#AAB7B8;dashed=0;" vertex="1" parent="Gd5muSknLl1hoR8JFERJ-36">
          <mxGeometry x="65" y="25" width="410" height="240" as="geometry" />
        </mxCell>
        <mxCell id="Gd5muSknLl1hoR8JFERJ-31" value="Public subnet" style="points=[[0,0],[0.25,0],[0.5,0],[0.75,0],[1,0],[1,0.25],[1,0.5],[1,0.75],[1,1],[0.75,1],[0.5,1],[0.25,1],[0,1],[0,0.75],[0,0.5],[0,0.25]];outlineConnect=0;gradientColor=none;html=1;whiteSpace=wrap;fontSize=12;fontStyle=0;container=1;pointerEvents=0;collapsible=0;recursiveResize=0;shape=mxgraph.aws4.group;grIcon=mxgraph.aws4.group_security_group;grStroke=0;strokeColor=#7AA116;fillColor=#F2F6E8;verticalAlign=top;align=left;spacingLeft=30;fontColor=#248814;dashed=0;" vertex="1" parent="Gd5muSknLl1hoR8JFERJ-29">
          <mxGeometry x="37.5" y="50" width="350" height="166" as="geometry" />
        </mxCell>
        <mxCell id="Gd5muSknLl1hoR8JFERJ-30" value="Availability Zone" style="fillColor=none;strokeColor=#147EBA;dashed=1;verticalAlign=top;fontStyle=0;fontColor=#147EBA;whiteSpace=wrap;html=1;" vertex="1" parent="Gd5muSknLl1hoR8JFERJ-31">
          <mxGeometry x="-7.5" y="-10" width="357.5" height="176" as="geometry" />
        </mxCell>
        <mxCell id="Gd5muSknLl1hoR8JFERJ-45" value="Private subnet" style="points=[[0,0],[0.25,0],[0.5,0],[0.75,0],[1,0],[1,0.25],[1,0.5],[1,0.75],[1,1],[0.75,1],[0.5,1],[0.25,1],[0,1],[0,0.75],[0,0.5],[0,0.25]];outlineConnect=0;gradientColor=none;html=1;whiteSpace=wrap;fontSize=12;fontStyle=0;container=1;pointerEvents=0;collapsible=0;recursiveResize=0;shape=mxgraph.aws4.group;grIcon=mxgraph.aws4.group_security_group;grStroke=0;strokeColor=#7AA116;fillColor=#F2F6E8;verticalAlign=top;align=left;spacingLeft=30;fontColor=#248814;dashed=0;" vertex="1" parent="Gd5muSknLl1hoR8JFERJ-29">
          <mxGeometry x="220" y="50" width="162.5" height="150" as="geometry" />
        </mxCell>
        <mxCell id="Gd5muSknLl1hoR8JFERJ-48" value="" style="sketch=0;points=[[0,0,0],[0.25,0,0],[0.5,0,0],[0.75,0,0],[1,0,0],[0,1,0],[0.25,1,0],[0.5,1,0],[0.75,1,0],[1,1,0],[0,0.25,0],[0,0.5,0],[0,0.75,0],[1,0.25,0],[1,0.5,0],[1,0.75,0]];outlineConnect=0;dashed=0;verticalLabelPosition=bottom;verticalAlign=top;align=left;html=1;fontSize=12;fontStyle=0;aspect=fixed;shape=mxgraph.aws4.resourceIcon;resIcon=mxgraph.aws4.rds;fillColor=#e1d5e7;strokeColor=#9673a6;" vertex="1" parent="Gd5muSknLl1hoR8JFERJ-45">
          <mxGeometry x="20" y="32" width="78" height="78" as="geometry" />
        </mxCell>
        <mxCell id="Gd5muSknLl1hoR8JFERJ-55" value="RDS" style="text;html=1;align=center;verticalAlign=middle;whiteSpace=wrap;rounded=0;" vertex="1" parent="Gd5muSknLl1hoR8JFERJ-29">
          <mxGeometry x="290" y="180" width="41.25" height="20" as="geometry" />
        </mxCell>
        <mxCell id="Gd5muSknLl1hoR8JFERJ-32" value="EC2" style="sketch=0;points=[[0,0,0],[0.25,0,0],[0.5,0,0],[0.75,0,0],[1,0,0],[0,1,0],[0.25,1,0],[0.5,1,0],[0.75,1,0],[1,1,0],[0,0.25,0],[0,0.5,0],[0,0.75,0],[1,0.25,0],[1,0.5,0],[1,0.75,0]];outlineConnect=0;fontColor=#232F3E;fillColor=#ED7100;strokeColor=#ffffff;dashed=0;verticalLabelPosition=bottom;verticalAlign=top;align=center;html=1;fontSize=12;fontStyle=1;aspect=fixed;shape=mxgraph.aws4.resourceIcon;resIcon=mxgraph.aws4.ec2;labelBackgroundColor=default;labelBorderColor=#FFB570;" vertex="1" parent="Gd5muSknLl1hoR8JFERJ-29">
          <mxGeometry x="80" y="87.5" width="65" height="65" as="geometry" />
        </mxCell>
        <mxCell id="Gd5muSknLl1hoR8JFERJ-53" value="" style="edgeStyle=orthogonalEdgeStyle;rounded=0;orthogonalLoop=1;jettySize=auto;html=1;shape=link;dashed=1;flowAnimation=1;shadow=0;dashPattern=8 8;" edge="1" parent="Gd5muSknLl1hoR8JFERJ-29" source="Gd5muSknLl1hoR8JFERJ-32" target="Gd5muSknLl1hoR8JFERJ-48">
          <mxGeometry relative="1" as="geometry" />
        </mxCell>
        <mxCell id="Gd5muSknLl1hoR8JFERJ-39" value="Internet&#xa;gateway" style="sketch=0;outlineConnect=0;fontColor=#232F3E;gradientColor=none;strokeColor=#232F3E;fillColor=#ffffff;dashed=0;verticalLabelPosition=bottom;verticalAlign=top;align=center;html=1;fontSize=12;fontStyle=1;aspect=fixed;shape=mxgraph.aws4.resourceIcon;resIcon=mxgraph.aws4.internet_gateway;labelBorderColor=#7EA6E0;labelBackgroundColor=default;" vertex="1" parent="1">
          <mxGeometry x="370" y="300" width="60" height="60" as="geometry" />
        </mxCell>
        <mxCell id="Gd5muSknLl1hoR8JFERJ-40" style="edgeStyle=orthogonalEdgeStyle;rounded=0;orthogonalLoop=1;jettySize=auto;html=1;shape=link;flowAnimation=1;" edge="1" source="Gd5muSknLl1hoR8JFERJ-41" target="Gd5muSknLl1hoR8JFERJ-39" parent="1">
          <mxGeometry relative="1" as="geometry" />
        </mxCell>
        <mxCell id="Gd5muSknLl1hoR8JFERJ-41" value="Client" style="sketch=0;outlineConnect=0;fontColor=#232F3E;gradientColor=none;fillColor=#232F3D;strokeColor=none;dashed=0;verticalLabelPosition=bottom;verticalAlign=top;align=center;html=1;fontSize=12;fontStyle=1;aspect=fixed;pointerEvents=1;shape=mxgraph.aws4.user;labelBorderColor=default;labelBackgroundColor=default;" vertex="1" parent="1">
          <mxGeometry x="190" y="300" width="60" height="60" as="geometry" />
        </mxCell>
        <mxCell id="Gd5muSknLl1hoR8JFERJ-42" style="edgeStyle=orthogonalEdgeStyle;rounded=0;orthogonalLoop=1;jettySize=auto;html=1;shape=link;flowAnimation=1;" edge="1" source="Gd5muSknLl1hoR8JFERJ-32" target="Gd5muSknLl1hoR8JFERJ-39" parent="1">
          <mxGeometry relative="1" as="geometry" />
        </mxCell>
      </root>
    </mxGraphModel>
  </diagram>
</mxfile>
